<svg xmlns="http://www.w3.org/2000/svg" xmlns:xlink="http://www.w3.org/1999/xlink" version="1.1" x="0px" y="0px" viewBox="0 0 100 125" enable-background="new 0 0 100 100" xml:space="preserve"><g><path fill="#e59444" d="M92.764,26.641L50.06,52.412L7.72,26.641c-1.325-0.731-2.577-1.16-2.577-2.577v-2.041   c0-1.417,1.16-2.577,2.577-2.577h85.043c1.417,0,2.577,1.16,2.577,2.577v2.041C95.41,25.434,94.342,25.776,92.764,26.641z"/><path fill="#e59444" d="M95.341,34.373c0.003-1.329-0.999-2.154-2.577-1.289L50.06,58.855L7.72,33.084   c-1.32-0.729-2.577,0.206-2.576,1.302v42.508c0,1.417,1.16,2.577,2.577,2.577h85.043c1.417,0,2.577-1.16,2.577-2.577"/></g></svg>